<svg xmlns="http://www.w3.org/2000/svg" viewBox="0 0 32 32" width="32" height="32">
  <defs>
    <!-- Gradients for depth -->
    <radialGradient id="bgGradient" cx="0.3" cy="0.3" r="1">
      <stop offset="0%" stop-color="#2d3748"/>
      <stop offset="100%" stop-color="#1a202c"/>
    </radialGradient>
    
    <linearGradient id="shieldGradient" x1="0%" y1="0%" x2="100%" y2="100%">
      <stop offset="0%" stop-color="#4299e1"/>
      <stop offset="50%" stop-color="#3182ce"/>
      <stop offset="100%" stop-color="#2c5aa0"/>
    </linearGradient>
    
    <!-- Drop shadow filter -->
    <filter id="dropShadow" x="-50%" y="-50%" width="200%" height="200%">
      <feDropShadow dx="1" dy="1" stdDeviation="1" flood-color="#000" flood-opacity="0.3"/>
    </filter>
  </defs>
  
  <!-- Background circle with gradient -->
  <circle cx="16" cy="16" r="15" fill="url(#bgGradient)" stroke="#4a5568" stroke-width="0.5"/>
  
  <!-- Shield shape with gradient and shadow -->
  <path d="M16 5 L25 9 L25 17.5 C25 22 21 26.5 16 26.5 C11 26.5 7 22 7 17.5 L7 9 Z" 
        fill="url(#shieldGradient)" 
        stroke="#2c5aa0" 
        stroke-width="0.5" 
        filter="url(#dropShadow)"/>
  
  <!-- Inner shield highlight -->
  <path d="M16 7 L22 10 L22 16.5 C22 19.5 19.5 22.5 16 22.5 C12.5 22.5 10 19.5 10 16.5 L10 10 Z" 
        fill="none" 
        stroke="#63b3ed" 
        stroke-width="0.5" 
        opacity="0.6"/>
  
  <!-- Enhanced chain links with 3D effect -->
  <g fill="#e2e8f0" stroke="#a0aec0" stroke-width="1.2">
    <!-- Left chain link -->
    <ellipse cx="12" cy="11" rx="1.8" ry="2.5" transform="rotate(45 12 11)"/>
    <ellipse cx="12" cy="11" rx="1.2" ry="1.6" transform="rotate(45 12 11)" fill="none" stroke="#f7fafc" stroke-width="0.6"/>
    
    <!-- Right chain link -->
    <ellipse cx="20" cy="11" rx="1.8" ry="2.5" transform="rotate(-45 20 11)"/>
    <ellipse cx="20" cy="11" rx="1.2" ry="1.6" transform="rotate(-45 20 11)" fill="none" stroke="#f7fafc" stroke-width="0.6"/>
    
    <!-- Center chain link -->
    <ellipse cx="16" cy="15" rx="1.8" ry="2.5"/>
    <ellipse cx="16" cy="15" rx="1.2" ry="1.6" fill="none" stroke="#f7fafc" stroke-width="0.6"/>
  </g>
  
  <!-- Lock symbol for additional security theme -->
  <g fill="#2d3748">
    <rect x="14.5" y="20.5" width="3" height="2" rx="0.3" fill="#4a5568"/>
    <path d="M15 20.5 L15 19.2 C15 18.5 15.4 18 16 18 C16.6 18 17 18.5 17 19.2 L17 20.5" 
          fill="none" stroke="#4a5568" stroke-width="0.8"/>
  </g>
  
  <!-- Enhanced checkmark with double stroke -->
  <g filter="url(#dropShadow)">
    <path d="M12.5 17.5 L14.5 19.5 L19.5 14.5" 
          fill="none" 
          stroke="#48bb78" 
          stroke-width="2.2" 
          stroke-linecap="round" 
          stroke-linejoin="round"/>
    <path d="M12.5 17.5 L14.5 19.5 L19.5 14.5" 
          fill="none" 
          stroke="#68d391" 
          stroke-width="1.6" 
          stroke-linecap="round" 
          stroke-linejoin="round"/>
  </g>
  
  <!-- Subtle corner elements -->
  <g opacity="0.15" fill="#4299e1">
    <circle cx="6" cy="6" r="1"/>
    <circle cx="26" cy="26" r="1"/>
    <rect x="25" y="5" width="2" height="2" rx="0.5"/>
    <rect x="5" y="25" width="2" height="2" rx="0.5"/>
  </g>
</svg> 