<svg xmlns="http://www.w3.org/2000/svg" viewBox="0 0 32 32" width="32" height="32">
  <defs>
    <!-- Modern gradient backgrounds -->
    <radialGradient id="mainBg" cx="0.4" cy="0.3">
      <stop offset="0%" stop-color="#1e293b"/>
      <stop offset="100%" stop-color="#0f172a"/>
    </radialGradient>
    
    <linearGradient id="hexShield" x1="0%" y1="0%" x2="100%" y2="100%">
      <stop offset="0%" stop-color="#3b82f6"/>
      <stop offset="50%" stop-color="#1d4ed8"/>
      <stop offset="100%" stop-color="#1e40af"/>
    </linearGradient>
    
    <linearGradient id="chainLink" x1="0%" y1="0%" x2="100%" y2="100%">
      <stop offset="0%" stop-color="#f8fafc"/>
      <stop offset="100%" stop-color="#cbd5e0"/>
    </linearGradient>
  </defs>
  
  <!-- Main background -->
  <circle cx="16" cy="16" r="15.5" fill="url(#mainBg)" stroke="#334155" stroke-width="1"/>
  
  <!-- Hexagonal shield shape -->
  <path d="M16 4 L23 7.5 L23 16.5 L16 20 L9 16.5 L9 7.5 Z" 
        fill="url(#hexShield)" 
        stroke="#1e40af" 
        stroke-width="0.5"/>
  
  <!-- Inner hex highlight -->
  <path d="M16 6 L21 9 L21 15 L16 18 L11 15 L11 9 Z" 
        fill="none" 
        stroke="#60a5fa" 
        stroke-width="0.4" 
        opacity="0.8"/>
  
  <!-- Chain pattern inside shield -->
  <g stroke="url(#chainLink)" fill="none" stroke-width="1.2" stroke-linecap="round">
    <!-- Horizontal chain links -->
    <ellipse cx="13.5" cy="11" rx="1.2" ry="0.8"/>
    <ellipse cx="18.5" cy="11" rx="1.2" ry="0.8"/>
    <ellipse cx="16" cy="13.5" rx="1.2" ry="0.8"/>
    
    <!-- Connecting elements -->
    <line x1="14.7" y1="11" x2="17.3" y2="11"/>
    <line x1="16" y1="12.7" x2="16" y2="14.3"/>
  </g>
  
  <!-- Central security symbol -->
  <g fill="#1f2937" stroke="#374151">
    <!-- Lock body -->
    <rect x="14.5" y="21" width="3" height="2" rx="0.3" fill="#4b5563"/>
    <!-- Lock shackle -->
    <path d="M15 21 L15 19.5 C15 18.7 15.4 18.2 16 18.2 C16.6 18.2 17 18.7 17 19.5 L17 21" 
          fill="none" stroke="#4b5563" stroke-width="0.8"/>
  </g>
  
  <!-- Verification checkmark -->
  <path d="M12.8 16.5 L14.5 18.2 L19.2 13.5" 
        fill="none" 
        stroke="#10b981" 
        stroke-width="2" 
        stroke-linecap="round" 
        stroke-linejoin="round"/>
  
  <!-- Modern corner accents -->
  <g opacity="0.3" fill="#3b82f6">
    <!-- Top corners -->
    <polygon points="4,4 8,4 4,8"/>
    <polygon points="28,4 24,4 28,8"/>
    <!-- Bottom corners -->
    <polygon points="4,28 4,24 8,28"/>
    <polygon points="28,28 28,24 24,28"/>
  </g>
  
  <!-- Subtle tech pattern -->
  <g opacity="0.1" stroke="#3b82f6" stroke-width="0.5" fill="none">
    <circle cx="6" cy="16" r="1"/>
    <circle cx="26" cy="16" r="1"/>
    <rect x="15.5" y="2" width="1" height="2"/>
    <rect x="15.5" y="28" width="1" height="2"/>
  </g>
</svg> 